<svg xmlns="http://www.w3.org/2000/svg" xml:space="preserve" fill-rule="evenodd" stroke-linejoin="round" stroke-miterlimit="2" clip-rule="evenodd" viewBox="0 0 1250 1250"><path fill="#222" fill-rule="nonzero" d="m944.128 584.317 21.477 52.729h.551l21.064-52.729h26.158l-35.52 82.605-6.195 14.731c-2.478 5.874-5.438 10.394-8.88 13.561-3.442 3.166-8.513 4.749-15.213 4.749h-18.448v-20.375h17.622l5.645-13.63-32.904-76.518v14.702h-17.623v62.78H876.53v-62.78h-14.042v-19.825h14.318v-13.216c0-6.792 1.766-11.794 5.3-15.007 3.534-3.212 8.559-4.818 15.075-4.818h23.956v19.825h-19.55v13.216h42.541Zm-678.044 84.257c-8.628 0-16.223-1.767-22.785-5.301-6.563-3.533-11.702-8.512-15.42-14.937-3.717-6.425-5.575-13.997-5.575-22.716 0-8.72 1.835-16.292 5.507-22.717 3.671-6.424 8.811-11.404 15.419-14.937 6.608-3.534 14.226-5.301 22.854-5.301 11.197 0 20.399 2.846 27.604 8.536 7.205 5.691 11.633 13.4 13.285 23.129h-25.332c-1.101-3.029-2.96-5.392-5.576-7.09-2.615-1.698-5.943-2.547-9.981-2.547-5.415 0-9.844 1.813-13.286 5.438-3.441 3.626-5.162 8.788-5.162 15.489 0 6.7 1.744 11.862 5.231 15.488 3.488 3.625 7.894 5.438 13.217 5.438 8.719 0 14.043-3.625 15.97-10.876h25.332c-1.468 10.188-5.782 18.219-12.941 24.093-7.159 5.874-16.613 8.811-28.361 8.811Zm746.744 0c-4.131 0-7.641-1.446-10.533-4.337-2.891-2.891-4.336-6.402-4.336-10.532s1.445-7.641 4.336-10.532c2.892-2.891 6.402-4.337 10.533-4.337 4.13 0 7.64 1.446 10.532 4.337 2.891 2.891 4.336 6.402 4.336 10.532s-1.445 7.641-4.336 10.532c-2.892 2.891-6.402 4.337-10.532 4.337Zm-397.603 0c-9.086 0-16.98-1.767-23.68-5.301-6.7-3.533-11.863-8.535-15.488-15.006-3.626-6.471-5.438-14.112-5.438-22.923 0-8.811 1.767-16.406 5.3-22.785 3.534-6.379 8.582-11.289 15.144-14.731 6.563-3.442 14.296-5.163 23.198-5.163 8.812 0 16.384 1.675 22.717 5.025 6.333 3.35 11.174 8.146 14.524 14.387 3.35 6.242 5.025 13.722 5.025 22.441v8.123h-61.54c1.01 5.323 3.212 9.339 6.608 12.046 3.396 2.708 7.894 4.062 13.492 4.062 4.498 0 8.009-.712 10.533-2.134 2.524-1.423 4.336-3.694 5.438-6.815h25.332c-1.744 8.995-6.242 16.039-13.492 21.133-7.251 5.094-16.475 7.641-27.673 7.641Zm-258.278 0c-9.085 0-17.015-1.771-23.789-5.314-6.774-3.542-12.028-8.533-15.764-14.974-3.735-6.44-5.602-14.031-5.602-22.772 0-8.741 1.858-16.324 5.576-22.748 3.717-6.425 8.98-11.381 15.788-14.869 6.808-3.488 14.785-5.232 23.93-5.232 9.179 0 17.103 1.744 23.772 5.232 6.669 3.488 11.832 8.444 15.488 14.869 3.656 6.424 5.485 14.042 5.485 22.854 0 8.719-1.828 16.314-5.482 22.785-3.654 6.47-8.838 11.449-15.554 14.937-6.715 3.488-14.664 5.232-23.848 5.232Zm473.187-1.652v-82.605h25.332v82.605h-25.332Zm-286.086 0c-6.425 0-11.404-1.629-14.938-4.888-3.534-3.258-5.3-8.237-5.3-14.937v-42.955h-13.768v-19.825h14.043v-24.781h24.781v24.781h18.173v19.825h-17.897v42.955h19.825v19.825h-24.919Zm254.697 0c-6.425 0-11.404-1.629-14.938-4.888-3.534-3.258-5.301-8.237-5.301-14.937v-42.955h-13.767v-19.825h14.043v-24.781h24.781v24.781h18.173v19.825h-17.898v42.955h19.826v19.825h-24.919Zm-377.915 0v-57.823h-12.391v-24.782h25.332v13.768h5.782c3.304-4.773 7.366-8.513 12.184-11.221 4.819-2.707 10.991-4.061 18.517-4.061 11.749 0 20.766 3.166 27.053 9.499 6.288 6.333 9.431 14.823 9.431 25.47v49.15h-25.332v-44.194c0-5.69-1.491-10.004-4.474-12.941-2.983-2.937-7.366-4.406-13.148-4.406-5.783 0-10.165 1.469-13.148 4.406-2.983 2.937-4.474 7.251-4.474 12.941v44.194H420.83Zm254.696 0v-57.823h-12.39v-24.782h25.332v13.768h5.782c3.304-4.773 7.366-8.513 12.184-11.221 4.819-2.707 10.991-4.061 18.517-4.061 11.748 0 20.766 3.166 27.053 9.499 6.287 6.333 9.431 14.823 9.431 25.47v49.15h-25.332v-44.194c0-5.69-1.492-10.004-4.475-12.941-2.982-2.937-7.365-4.406-13.147-4.406-5.783 0-10.165 1.469-13.148 4.406-2.983 2.937-4.475 7.251-4.475 12.941v44.194h-25.332Zm-318.577-20.376c6.333 0 11.174-1.905 14.524-5.713 3.35-3.809 5.025-8.912 5.025-15.308 0-6.454-1.675-11.539-5.025-15.256-3.35-3.717-8.191-5.576-14.524-5.576-6.425 0-11.335 1.859-14.731 5.576-3.396 3.717-5.094 8.788-5.094 15.213 0 6.425 1.698 11.542 5.094 15.351 3.396 3.808 8.306 5.713 14.731 5.713ZM595.4 616.12h36.897c-.826-4.589-2.731-8.008-5.714-10.257-2.983-2.248-7.044-3.373-12.184-3.373-5.048 0-9.178 1.148-12.391 3.442-3.212 2.295-5.415 5.691-6.608 10.188Zm247.4-38.824c-3.763 0-6.975-1.331-9.637-3.993-2.662-2.661-3.993-5.874-3.993-9.637 0-3.763 1.331-6.975 3.993-9.637 2.662-2.662 5.874-3.992 9.637-3.992 3.763 0 6.976 1.33 9.637 3.992 2.662 2.662 3.993 5.874 3.993 9.637 0 3.763-1.331 6.976-3.993 9.637-2.661 2.662-5.874 3.993-9.637 3.993Z"/></svg>